<svg width="27" height="28" viewBox="0 0 27 28" fill="none" xmlns="http://www.w3.org/2000/svg">
<g clip-path="url(#clip0_72_770)">
<path d="M23.7527 7.91376H2.91968C2.54641 7.91379 2.17763 7.99524 1.83897 8.15244C1.50032 8.30964 1.19991 8.53882 0.958635 8.82405C0.717363 9.10928 0.541014 9.44371 0.441852 9.8041C0.342689 10.1645 0.323091 10.5422 0.384419 10.9109C0.488513 11.5363 0.722052 12.1329 1.07004 12.6625C1.41802 13.192 1.87276 13.6429 2.40505 13.986C2.93733 14.3292 3.5354 14.557 4.16083 14.655C4.78626 14.7529 5.42523 14.7187 6.0367 14.5547L9.12396 13.7262C9.50597 13.6237 9.9082 13.6237 10.2902 13.7262C10.6722 13.8287 11.0206 14.0301 11.3002 14.3102C11.5799 14.5903 11.781 14.9391 11.8834 15.3217C11.9857 15.7043 11.9857 16.1071 11.8833 16.4897L11.7237 17.0871C11.5262 17.8251 11.5009 18.5987 11.6497 19.348C11.7985 20.0974 12.1174 20.8024 12.5818 21.4086C13.0462 22.0147 13.6436 22.5058 14.3278 22.8438C15.012 23.1817 15.7647 23.3576 16.5276 23.3576H22.039C22.6474 23.3576 23.2361 23.1415 23.7003 22.7476C24.1645 22.3538 24.4741 21.8078 24.5741 21.2068L26.2877 10.9109C26.3491 10.5422 26.3295 10.1645 26.2304 9.8041C26.1313 9.4437 25.955 9.10926 25.7137 8.82402C25.4724 8.53878 25.172 8.30959 24.8334 8.15239C24.4947 7.9952 24.1259 7.91376 23.7527 7.91376Z" fill="#FF0000"/>
<path d="M8.18446 16.0792L3.05962 17.4545C2.84313 17.5128 2.64952 17.6358 2.50465 17.8071C2.35978 17.9784 2.27054 18.1899 2.24883 18.4133C2.22712 18.6368 2.27399 18.8615 2.38316 19.0576C2.49234 19.2537 2.65864 19.4117 2.85986 19.5107L4.70065 20.4145C4.91984 20.5223 5.09713 20.6998 5.20473 20.9193L6.10722 22.7629C6.20602 22.9644 6.36384 23.1309 6.55962 23.2403C6.7554 23.3496 6.97983 23.3965 7.20294 23.3748C7.42605 23.353 7.63724 23.2637 7.8083 23.1186C7.97937 22.9735 8.10217 22.7796 8.16033 22.5628L9.53362 17.4302C9.58355 17.2431 9.58346 17.0462 9.53337 16.8592C9.48327 16.6722 9.38493 16.5017 9.24823 16.3649C9.11152 16.228 8.94126 16.1295 8.75454 16.0794C8.56782 16.0292 8.37121 16.0292 8.18446 16.0792Z" fill="#008EFF"/>
<path d="M18.0359 6.6981C17.9073 6.69811 17.78 6.67277 17.6613 6.62351C17.5425 6.57425 17.4346 6.50204 17.3437 6.41101C17.2528 6.31998 17.1807 6.21191 17.1315 6.09296C17.0823 5.97402 17.057 5.84654 17.057 5.7178V5.68702C17.057 4.69872 16.665 3.75091 15.9672 3.05208C15.2694 2.35325 14.323 1.96065 13.3362 1.96065C12.3493 1.96065 11.4029 2.35325 10.7051 3.05208C10.0073 3.75091 9.61531 4.69872 9.61531 5.68702V5.7178C9.61531 5.84652 9.58999 5.97398 9.54081 6.0929C9.49162 6.21183 9.41953 6.31988 9.32864 6.4109C9.23776 6.50192 9.12986 6.57412 9.01112 6.62338C8.89237 6.67264 8.7651 6.69799 8.63657 6.69799C8.50804 6.69799 8.38077 6.67264 8.26203 6.62338C8.14328 6.57412 8.03539 6.50192 7.9445 6.4109C7.85362 6.31988 7.78152 6.21183 7.73234 6.0929C7.68315 5.97398 7.65784 5.84652 7.65784 5.7178V5.68702C7.65784 4.1788 8.25609 2.73236 9.32098 1.66588C10.3859 0.599413 11.8302 0.000275612 13.3362 0.000275612C14.8422 0.000275612 16.2865 0.599413 17.3514 1.66588C18.4163 2.73236 19.0145 4.1788 19.0145 5.68702V5.7178C19.0145 5.84652 18.9892 5.97399 18.94 6.09291C18.8909 6.21184 18.8188 6.3199 18.7279 6.41093C18.637 6.50196 18.5292 6.57417 18.4104 6.62344C18.2917 6.67272 18.1644 6.69809 18.0359 6.6981Z" fill="#008EFF"/>
<path d="M17.4206 28C18.1713 28 18.7798 27.3906 18.7798 26.6388C18.7798 25.887 18.1713 25.2776 17.4206 25.2776C16.6699 25.2776 16.0614 25.887 16.0614 26.6388C16.0614 27.3906 16.6699 28 17.4206 28Z" fill="black"/>
<path d="M10.1789 28C10.9296 28 11.5381 27.3906 11.5381 26.6388C11.5381 25.887 10.9296 25.2776 10.1789 25.2776C9.42823 25.2776 8.8197 25.887 8.8197 26.6388C8.8197 27.3906 9.42823 28 10.1789 28Z" fill="black"/>
</g>
<defs>
<clipPath id="clip0_72_770">
<rect width="25.9745" height="28" fill="white" transform="translate(0.348877)"/>
</clipPath>
</defs>
</svg>
