<?xml version="1.0" standalone="no"?>
<!DOCTYPE svg PUBLIC "-//W3C//DTD SVG 20010904//EN"
 "http://www.w3.org/TR/2001/REC-SVG-20010904/DTD/svg10.dtd">
<svg version="1.0" xmlns="http://www.w3.org/2000/svg"
 width="112.000000pt" height="112.000000pt" viewBox="0 0 112.000000 112.000000"
 preserveAspectRatio="xMidYMid meet">
<metadata>
Created by potrace 1.14, written by Peter Selinger 2001-2017
</metadata>
<g transform="translate(0.000000,112.000000) scale(0.100000,-0.100000)"
fill="#000000" stroke="none">
<path d="M497 1106 c-79 -29 -125 -84 -146 -174 -6 -31 -5 -46 6 -61 27 -39
60 -22 69 34 14 96 87 148 181 130 43 -8 99 -59 107 -98 3 -15 8 -38 11 -51 6
-29 30 -40 57 -25 18 10 20 17 13 62 -18 142 -164 232 -298 183z"/>
<path d="M115 792 c-94 -38 -70 -183 39 -237 55 -27 83 -30 136 -15 112 34
147 38 178 23 43 -21 57 -59 43 -123 -6 -27 -8 -67 -5 -88 7 -52 52 -113 103
-141 40 -22 56 -24 185 -25 155 -2 196 8 215 51 9 21 25 98 46 233 2 14 11 65
20 114 22 129 20 152 -14 187 -16 16 -40 29 -53 30 -13 0 -211 2 -441 2 -324
2 -426 -1 -452 -11z"/>
<path d="M260 448 c-58 -16 -111 -35 -119 -43 -26 -25 -6 -61 49 -84 41 -18
54 -30 74 -69 34 -66 50 -79 78 -60 18 12 30 41 51 121 32 125 33 143 8 157
-24 12 -15 14 -141 -22z"/>
<path d="M418 98 c-28 -22 -31 -55 -9 -77 36 -36 91 -17 91 31 0 45 -48 72
-82 46z"/>
<path d="M700 90 c-11 -11 -20 -27 -20 -35 0 -21 36 -55 59 -55 46 0 67 62 33
93 -25 22 -48 21 -72 -3z"/>
</g>
</svg>
